<svg xmlns="http://www.w3.org/2000/svg" width="26.22" height="30.253" viewBox="0 0 26.22 30.253">
  <g id="Group_677" data-name="Group 677" transform="translate(-10.394 -42.515)">
    <g id="Group_674" data-name="Group 674" transform="translate(10.394 42.515)">
      <g id="Group_673" data-name="Group 673" transform="translate(0 0)">
        <path id="Path_602" data-name="Path 602" d="M31.137,49.018l1.274-1.911L32.4,47.1a.981.981,0,0,0,.185-.549,1.008,1.008,0,0,0-1.008-1.008.994.994,0,0,0-.824.459l-.015-.01-1.322,1.983A13.058,13.058,0,0,0,24.5,46.6a.469.469,0,0,0,.011-.05V44.532h2.017a1.008,1.008,0,0,0,0-2.017H20.479a1.008,1.008,0,0,0,0,2.017H22.5v2.017c0,.018.009.032.01.05a13.121,13.121,0,1,0,8.631,2.419ZM23.5,70.752A11.093,11.093,0,1,1,34.6,59.659,11.093,11.093,0,0,1,23.5,70.752Z" transform="translate(-10.394 -42.515)" fill="#e7b03c"/>
      </g>
    </g>
    <g id="Group_676" data-name="Group 676" transform="translate(22.496 52.6)">
      <g id="Group_675" data-name="Group 675" transform="translate(0)">
        <path id="Path_603" data-name="Path 603" d="M80.518,94.794a1.054,1.054,0,0,0-1.49,0l-5.961,5.96a1.054,1.054,0,0,0,1.49,1.491l5.961-5.961A1.055,1.055,0,0,0,80.518,94.794Z" transform="translate(-72.758 -94.485)" fill="#e7b03c"/>
      </g>
    </g>
  </g>
</svg>
