<svg xmlns="http://www.w3.org/2000/svg" width="33.877" height="34.284" viewBox="0 0 33.877 34.284">
  <g id="surface1" transform="translate(0)">
    <path id="Path_601" data-name="Path 601" d="M22.115,16.138a11.759,11.759,0,0,0-9.754,5.195v-6.88a1.687,1.687,0,0,1,1.685-1.685A3.7,3.7,0,0,0,17.74,9.073V3.694A3.7,3.7,0,0,0,14.046,0H8.666A4.17,4.17,0,0,0,5.988,1.017,4.171,4.171,0,0,0,4.544,3.492L.049,30.462a3.3,3.3,0,0,0,.7,2.688,3.3,3.3,0,0,0,2.536,1.134h26.9a3.7,3.7,0,0,0,3.694-3.694V27.9A11.776,11.776,0,0,0,22.115,16.138ZM31.869,30.59a1.687,1.687,0,0,1-1.685,1.685H3.287a1.282,1.282,0,0,1-1-.424,1.281,1.281,0,0,1-.253-1.059l4.5-26.969A2.278,2.278,0,0,1,8.666,2.009h5.379a1.687,1.687,0,0,1,1.685,1.685V5.379h-3.37V5.308a1,1,0,1,0-2.009,0V6.384a1,1,0,0,0,1,1h4.375V9.073a1.687,1.687,0,0,1-1.685,1.685,3.7,3.7,0,0,0-3.694,3.694V27.9a1,1,0,0,0,2.009,0,9.754,9.754,0,0,1,19.508,0Z" transform="translate(0)" fill="#e7b03c"/>
  </g>
</svg>
