<svg id="surface1" xmlns="http://www.w3.org/2000/svg" width="32.723" height="32.723" viewBox="0 0 32.723 32.723">
  <path id="Path_491" data-name="Path 491" d="M184.457,95.652h-4.2q.023-.7.024-1.4a.959.959,0,0,0-.959-.959H158.785a.959.959,0,0,0-.959.959q0,.705.024,1.4h-4.2a.959.959,0,0,0-.959.959,20.778,20.778,0,0,0,3.161,11.412c2.015,3.029,4.7,4.766,7.6,4.935a9.839,9.839,0,0,0,2.076,1.743v4.261h-1.608a3.53,3.53,0,0,0-3.526,3.526V124.1h-.068a.959.959,0,0,0,0,1.917h17.457a.959.959,0,1,0,0-1.917h-.068v-1.608a3.53,3.53,0,0,0-3.526-3.526H172.58V114.7a9.832,9.832,0,0,0,2.076-1.743c2.9-.169,5.583-1.906,7.6-4.935a20.778,20.778,0,0,0,3.161-11.412A.959.959,0,0,0,184.457,95.652ZM157.45,106.96a18.476,18.476,0,0,1-2.82-9.391h3.327a32.033,32.033,0,0,0,2.978,11.63q.383.767.8,1.449A9.245,9.245,0,0,1,157.45,106.96ZM175.8,122.487V124.1H162.311v-1.609a1.61,1.61,0,0,1,1.609-1.609h10.268A1.61,1.61,0,0,1,175.8,122.487Zm-5.134-3.526h-3.217v-3.428a6.239,6.239,0,0,0,3.217,0Zm.594-5.709a.937.937,0,0,0-.124.063,4.476,4.476,0,0,1-4.155,0,.953.953,0,0,0-.126-.064,7.717,7.717,0,0,1-2.167-1.786.964.964,0,0,0-.122-.143,15.11,15.11,0,0,1-1.912-2.981,31.647,31.647,0,0,1-2.9-13.134h18.6a31.655,31.655,0,0,1-2.9,13.134,15.126,15.126,0,0,1-1.912,2.981.944.944,0,0,0-.123.143A7.719,7.719,0,0,1,171.256,113.253Zm9.4-6.292a9.246,9.246,0,0,1-4.286,3.688q.416-.682.8-1.449a32.039,32.039,0,0,0,2.978-11.63h3.327A18.476,18.476,0,0,1,180.658,106.96Z" transform="translate(-152.692 -93.29)" fill="#e7b03c"/>
</svg>
