<svg id="Group_540" data-name="Group 540" xmlns="http://www.w3.org/2000/svg" width="29.777" height="34.604" viewBox="0 0 29.777 34.604">
  <path id="Path_544" data-name="Path 544" d="M139.268,67.138h5.776a2.779,2.779,0,0,0,2.776-2.776v-.27a2.779,2.779,0,0,0-2.776-2.776h-5.776a2.779,2.779,0,0,0-2.776,2.776v.27A2.779,2.779,0,0,0,139.268,67.138Zm-.7-3.046a.7.7,0,0,1,.7-.7h5.776a.7.7,0,0,1,.7.7v.27a.7.7,0,0,1-.7.7h-5.776a.7.7,0,0,1-.7-.7Z" transform="translate(-127.267 -57.172)" fill="#e7b03c"/>
  <path id="Path_545" data-name="Path 545" d="M23.945,10.322A6.857,6.857,0,0,0,24.7,7.19V6.92A6.928,6.928,0,0,0,17.776,0H12a6.928,6.928,0,0,0-6.92,6.92v.27a6.861,6.861,0,0,0,.757,3.144A14.887,14.887,0,0,0,4.377,32.7,6.506,6.506,0,0,0,9,34.6H20.775a6.493,6.493,0,0,0,4.612-1.892,14.906,14.906,0,0,0-1.441-22.39Zm-.02,20.92a4.5,4.5,0,0,1-3.151,1.289H9a4.508,4.508,0,0,1-3.162-1.3A12.816,12.816,0,0,1,7.8,11.48a1.035,1.035,0,0,0,.267-1.467A4.806,4.806,0,0,1,7.153,7.19V6.92A4.853,4.853,0,0,1,12,2.072h5.776A4.853,4.853,0,0,1,22.624,6.92v.27A4.8,4.8,0,0,1,21.719,10a1.036,1.036,0,0,0,.27,1.466,12.832,12.832,0,0,1,1.937,19.772Z" fill="#e7b03c"/>
</svg>
