<svg xmlns="http://www.w3.org/2000/svg" width="33" height="21.521" viewBox="0 0 33 21.521">
  <g id="Group_612" data-name="Group 612" transform="translate(0 -27.115)">
    <g id="Group_507" data-name="Group 507" transform="translate(0 27.115)">
      <path id="Path_526" data-name="Path 526" d="M30.848,31.419H29.413a2.125,2.125,0,0,0-.717.132V29.267a2.155,2.155,0,0,0-2.152-2.152H25.109a2.155,2.155,0,0,0-2.152,2.152v5.022H10.044V29.267a2.155,2.155,0,0,0-2.152-2.152H6.456A2.155,2.155,0,0,0,4.3,29.267v2.284a2.125,2.125,0,0,0-.717-.132H2.152A2.155,2.155,0,0,0,0,33.571V42.18a2.155,2.155,0,0,0,2.152,2.152H3.587A2.125,2.125,0,0,0,4.3,44.2v2.284a2.155,2.155,0,0,0,2.152,2.152H7.891a2.155,2.155,0,0,0,2.152-2.152V41.463H22.956v5.022a2.155,2.155,0,0,0,2.152,2.152h1.435A2.155,2.155,0,0,0,28.7,46.484V44.2a2.125,2.125,0,0,0,.717.132h1.435A2.155,2.155,0,0,0,33,42.18V33.571A2.155,2.155,0,0,0,30.848,31.419ZM4.3,42.18a.718.718,0,0,1-.717.717H2.152a.718.718,0,0,1-.717-.717V33.571a.718.718,0,0,1,.717-.717H3.587a.718.718,0,0,1,.717.717Zm4.3,4.3a.719.719,0,0,1-.717.718H6.456a.719.719,0,0,1-.717-.718V29.267a.719.719,0,0,1,.717-.718H7.891a.719.719,0,0,1,.717.718Zm14.348-6.456H10.044v-4.3H22.956Zm4.3-6.457V46.484a.719.719,0,0,1-.717.718H25.109a.719.719,0,0,1-.717-.718V29.267a.719.719,0,0,1,.717-.718h1.435a.719.719,0,0,1,.717.718Zm4.3,8.609a.718.718,0,0,1-.717.717H29.413a.718.718,0,0,1-.717-.717V33.571a.718.718,0,0,1,.717-.717h1.435a.718.718,0,0,1,.717.717Z" transform="translate(0 -27.115)" fill="#E7B03C"/>
    </g>
  </g>
</svg>
